<?xml version="1.0" encoding="UTF-8"?>
<svg id="Layer_2" data-name="Layer 2" xmlns="http://www.w3.org/2000/svg" xmlns:xlink="http://www.w3.org/1999/xlink" viewBox="0 0 978.25 795.24">
  <defs>
    <style>
      .cls-1 {
        fill: #ffb200;
      }

      .cls-2 {
        fill: url(#Orchid-10);
      }

      .cls-3 {
        fill: url(#Orchid-3);
      }

      .cls-4 {
        fill: url(#Orchid-5);
      }

      .cls-5 {
        fill: url(#Orchid-2);
      }

      .cls-6 {
        fill: url(#Orchid-4);
      }

      .cls-7 {
        fill: url(#Orchid-7);
      }

      .cls-8 {
        fill: url(#Orchid-9);
      }

      .cls-9 {
        fill: url(#Orchid-8);
      }

      .cls-10 {
        fill: url(#Orchid-6);
      }

      .cls-11 {
        fill: url(#Orchid);
      }
    </style>
    <linearGradient id="Orchid" x1=".73" y1="307.94" x2="307.24" y2="307.94" gradientUnits="userSpaceOnUse">
      <stop offset="0" stop-color="#ff7bac"/>
      <stop offset=".22" stop-color="#ff7bac" stop-opacity=".76"/>
      <stop offset=".6" stop-color="#ff7bac" stop-opacity=".36"/>
      <stop offset=".87" stop-color="#ff7bac" stop-opacity=".1"/>
      <stop offset="1" stop-color="#ff7bac" stop-opacity="0"/>
    </linearGradient>
    <linearGradient id="Orchid-2" data-name="Orchid" x1="10.29" y1="121.78" x2="309.04" y2="121.78" xlink:href="#Orchid"/>
    <linearGradient id="Orchid-3" data-name="Orchid" x1="232.81" y1="283.18" x2="435.29" y2="283.18" xlink:href="#Orchid"/>
    <linearGradient id="Orchid-4" data-name="Orchid" x1="364.25" y1="266.53" x2="578.07" y2="266.53" xlink:href="#Orchid"/>
    <linearGradient id="Orchid-5" data-name="Orchid" x1="517.61" y1="256.56" x2="751.54" y2="256.56" xlink:href="#Orchid"/>
    <linearGradient id="Orchid-6" data-name="Orchid" x1="659.76" y1="293.99" x2="978.25" y2="293.99" xlink:href="#Orchid"/>
    <linearGradient id="Orchid-7" data-name="Orchid" x1="114.98" y1="590.25" x2="419.64" y2="590.25" xlink:href="#Orchid"/>
    <linearGradient id="Orchid-8" data-name="Orchid" x1="362.15" y1="597.09" x2="568.06" y2="597.09" xlink:href="#Orchid"/>
    <linearGradient id="Orchid-9" data-name="Orchid" x1="513.48" y1="598.84" x2="738.05" y2="598.84" xlink:href="#Orchid"/>
    <linearGradient id="Orchid-10" data-name="Orchid" x1="665.8" y1="628.62" x2="906.55" y2="628.62" xlink:href="#Orchid"/>
  </defs>
  <g id="Layer_1-2" data-name="Layer 1">
    <g id="j">
      <path id="j_2" class="cls-1" d="m102.25,250.24l80-78s44,49,58,70c0,0,193.5,262.02-69,263.76-262.5,1.74-140.5-182.26-140.5-182.26,0,0,48-18.42,71.5,8.29,8.94,10.16,9.99,20.22,7.87,28.78-2.31,9.29,6.82,17.23,15.67,13.58,43.23-17.86,102.95-58.93-23.53-124.15"/>
      <path id="j_1" class="cls-1" d="m31.75,271.74s120-139,187-109c0,0,7-94,80-107,0,0-79.95-110.41-289.07,110.77C-.05,176.81-2.71,191.94,2.91,204.95l28.84,66.79Z"/>
    </g>
    <g id="j-2" data-name="j">
      <path id="j_2-2" data-name="j_2" class="cls-11" d="m100.54,219.06l80-78s44,49,58,70c0,0,193.5,262.02-69,263.76-262.5,1.74-140.5-182.26-140.5-182.26,0,0,48-18.42,71.5,8.29,8.94,10.16,9.99,20.22,7.87,28.78-2.31,9.29,6.82,17.23,15.67,13.58,43.23-17.86,102.95-58.93-23.53-124.15"/>
      <path id="j_1-2" data-name="j_1" class="cls-5" d="m42.04,243.56s120-139,187-109c0,0,7-94,80-107,0,0-79.95-110.41-289.07,110.77-9.74,10.3-12.39,25.42-6.77,38.44l28.84,66.79Z"/>
    </g>
    <g id="a">
      <path class="cls-1" d="m315.41,132.96s-131.64,72.41-91.16,315.28c3,18,91,0,98-14s-21-47-5-64,4,58,11,59,47,20,81-3-26.67-296.56-93.84-293.28Zm10.84,194.28c-5,3-42,8-48.85-5.11-6.85-13.12,15.35-80.93,15.35-80.93,9.5,3.95,38.5,83.04,33.5,86.04Z"/>
    </g>
    <g id="a-2" data-name="a">
      <path class="cls-3" d="m331.7,121.78s-131.64,72.41-91.16,315.28c3,18,91,0,98-14s-21-47-5-64,4,58,11,59,47,20,81-3-26.67-296.56-93.84-293.28Zm10.84,194.28c-5,3-42,8-48.85-5.11-6.85-13.12,15.35-80.93,15.35-80.93,9.5,3.95,38.5,83.04,33.5,86.04Z"/>
    </g>
    <path id="s" class="cls-1" d="m467.09,246.2s75.66-13.46,88.66-62.46S456.03-3.35,367.89,246.2c-88.14,249.54,85.03,40.03,94.45,65.78,9.42,25.76-75.58,88.76-75.58,88.76,0,0,1.67,72,76.84,62.5,33.16-8.5,121.21-210.5,60.69-203.5s-99.03,64.25-110.28,39.63c-11.25-24.63,31.75-139.63,62.75-129.63s-27.32,73.91-9.66,76.46Z"/>
    <path id="s-2" data-name="s" class="cls-6" d="m488.38,230.01s75.66-13.46,88.66-62.46-99.72-187.09-187.86,62.46,85.03,40.03,94.45,65.78c9.42,25.76-75.58,88.76-75.58,88.76,0,0,1.67,72,76.84,62.5,33.16-8.5,121.21-210.5,60.69-203.5-60.52,7-99.03,64.25-110.28,39.63-11.25-24.63,31.75-139.63,62.75-129.63s-27.32,73.91-9.66,76.46Z"/>
    <g id="o">
      <path class="cls-1" d="m656.01,62.24c-51.16,0-113.85,96.76-144,192-33.88,107-.34,217,50.82,217,66.71,0,169.41-113,169.41-267,0-99.41-25.07-142-76.24-142Zm-39.87,258.83c-16.19,0-26.81-40.3-16.08-79.49,9.55-34.89,29.38-70.34,45.58-70.34s24.13,15.6,24.13,52.02c0,56.41-32.51,97.81-53.63,97.81Z"/>
    </g>
    <g id="o-2" data-name="o">
      <path class="cls-4" d="m675.31,52.06c-51.16,0-113.85,96.76-144,192-33.88,107-.34,217,50.82,217,66.71,0,169.41-113,169.41-267,0-99.41-25.07-142-76.24-142Zm-39.87,258.83c-16.19,0-26.81-40.3-16.08-79.49,9.55-34.89,29.38-70.34,45.58-70.34s24.13,15.6,24.13,52.02c0,56.41-32.51,97.81-53.63,97.81Z"/>
    </g>
    <path id="n" class="cls-1" d="m697.51,133.07c-1.63-14.76,5.47-29.06,17.58-35.52,21.48-11.47,53.48-24.91,65.07-10.81,11.33,13.78,26.7,86.42,36.61,138.77,5.38,28.44,38.02,37.74,55.01,15.58,5.32-6.94,8.91-13.92,8.91-20.15,0-24.19-61.65-48.19-43.57-95.19,12.69-32.99,73.95-26.56,109.34-19.8,15,2.87,25.99,17.18,26.19,34.02.83,70.65-5.33,265.78-77.96,380.53-4.04,6.38-9.59,11.42-16.27,13.86-16.04,5.86-36.39-9.37-56.67-16.61-20.86-7.45-32.95-18.08-19.5-37.23,8.94-12.72,17.31-29.88,14.07-46.77-.12-.61-.24-1.23-.38-1.86-8.17-37.95-69.24-151.14-62.13,4.58.98,21.46-9.63,38.24-26.76,38.78-20.48.65-44.46-2.35-65.06-5.96-22.11-3.87-33.72-31.16-22.28-52.43,29.39-54.66,71.65-158.22,57.79-283.77Z"/>
    <path id="n-2" data-name="n" class="cls-10" d="m718.52,118.89c-1.54-14.76,5.17-29.06,16.59-35.52,20.28-11.47,50.48-24.91,61.41-10.81,10.69,13.78,25.2,86.42,34.55,138.77,5.08,28.44,35.88,37.74,51.92,15.58,5.02-6.94,8.41-13.92,8.41-20.15,0-24.19-58.19-48.19-41.12-95.19,11.98-32.99,69.79-26.56,103.19-19.8,14.16,2.87,24.53,17.18,24.72,34.02.78,70.65-5.03,265.78-73.58,380.53-3.81,6.38-9.05,11.42-15.35,13.86-15.14,5.86-34.34-9.37-53.48-16.61-19.69-7.45-31.1-18.08-18.4-37.23,8.44-12.72,16.34-29.88,13.28-46.77-.11-.61-.23-1.23-.36-1.86-7.71-37.95-65.35-151.14-58.63,4.58.93,21.46-9.09,38.24-25.26,38.78-19.33.65-41.96-2.35-61.41-5.96-20.86-3.87-31.83-31.16-21.03-52.43,27.73-54.66,67.62-158.22,54.54-283.77Z"/>
    <g id="shadow_marc">
      <path id="m" class="cls-1" d="m290,617.87c1.35-.57,2.55,1.01,1.59,2.08-25.33,28.43-77.84,105.14-1.84,135.8,73.25,29.55,170-268.97,99.22-288.05-62.23-16.77-104.61,70.38-113.94,91.67-.55,1.27-2.41,1.03-2.63-.33-3.37-21.14-20.62-102.3-85.8-90.1-66.84,12.51-107.49,165.76-50.59,245.43,13.93,19.51,40.68,24.43,60.41,10.82,32.14-22.17,58.91-67.28,34.62-118.18-.67-1.41,1.32-2.57,2.33-1.36l21.72,25.83c.39.46,1.06.62,1.63.38l33.28-13.98Z"/>
    </g>
    <path id="m-2" data-name="m" class="cls-7" d="m296,596.7c1.34-.59,2.56,1.04,1.61,2.15-25.33,29.68-77.88,109.87-1.86,141.91,73.25,30.87,170-281.03,99.22-300.97-62.23-17.53-104.61,73.53-113.94,95.79-.54,1.28-2.42,1.05-2.63-.32-3.36-22.05-20.6-106.92-85.81-94.16-65.14,12.74-105.4,165.15-54.74,249.94,13.75,23.01,44.29,29.53,66.11,13.96,36.43-26,63.2-71.15,33.07-119.65-.85-1.37,1.32-2.68,2.33-1.43l21.72,26.99c.39.49,1.06.65,1.63.4l33.28-14.61Z"/>
    <g id="a-3" data-name="a">
      <path class="cls-1" d="m529.75,488.17s-145,0-182.5,220.43c-2.45,14.46,39.03,27.53,48.5,18.84,9.47-8.7,11.58-48.88,29-57.42,17.42-8.55-23.83,60.21-18,61.25,17.62,3.16,21.84,8.32,53,0,33.15-8.85,140-224.91,70-243.1Zm-57,127.29c-3.33.53-22.6-2.77-24-10.53-1.4-7.76,38-56.47,38-56.47,4.56,3.75-10.67,66.47-14,66.99Z"/>
    </g>
    <g id="a-4" data-name="a">
      <path class="cls-9" d="m544.75,467.74s-145,0-182.5,230.32c-2.45,15.11,39.03,28.77,48.5,19.68,9.47-9.09,11.58-51.07,29-60,17.42-8.93-23.83,62.91-18,64,17.62,3.3,21.84,8.69,53,0,33.15-9.25,140-235,70-254Zm-57,133c-3.33.55-22.6-2.89-24-11-1.4-8.11,38-59,38-59,4.56,3.92-10.67,69.45-14,70Z"/>
    </g>
    <g id="r">
      <path class="cls-1" d="m572.67,490.36c-5.17,1.91-9.27,5.91-11.3,11.03-16.82,42.45-81.77,204.18-57.53,228.44,58.98,59.01,80.33-50.31,87.45-63.85,4.05-7.7,7.16-10.51,15.25-9.67,20.16,2.07,37.25-4.97,31.52,13.54-3.54,11.43-24.77,24.44-37.62,38.7-17.32,19.2-33.69,27.82-8.13,34.83,41,11.23,89.71-2.88,115.08-45.39,23.02-38.58-29.28-60.55-61.19-69.99,33.08,5.27,91.33,2,92.82-85.85,1.8-106.84-131.53-64.62-166.34-51.78Zm49.15,102.59l14.45-56.25s29.29-17.78,37.16,14.14c7.88,31.93-51.61,42.1-51.61,42.1Z"/>
    </g>
    <g id="r-2" data-name="r">
      <path class="cls-8" d="m578.35,494.86c-8.6,23.88-85.38,197.77-59.6,224.88,58,61,67-52,74-66,3.98-7.96,7.04-10.86,15-10,19.83,2.14,36.63-5.14,31,14-3.48,11.81-24.36,25.26-37,40-17.03,19.85-33.13,28.76-8,36,40.32,11.61,88.23-2.98,113.18-46.92,22.64-39.88-28.8-62.59-60.18-72.34,32.53,5.45,89.82,2.07,91.28-88.74,2.04-127-159.68-30.88-159.68-30.88Zm44.43,83.4l14.21-58.14s28.81-18.38,36.55,14.62c7.75,33-50.76,43.52-50.76,43.52Z"/>
    </g>
    <path id="c" class="cls-1" d="m804.93,595.63c-5.36,6.22-1.48,15.66,6.85,16.85,15.77,2.26,38.13,1.07,55.97-17.11,31-31.58,61.47-118.01-70.82-117.79-41.09.07-247.23,210.61-76.37,314.23.78.47,1.63.86,2.51,1.13,68.24,20.4,171.11-100.58,157.03-162.21-.7-3.07-2.89-5.63-5.84-7.01-10.02-4.67-35.18-14.11-58.52-4.43-30,12.44-9,66.04-36,68.91-26.88,2.86-82.08-11.64,22.36-130.2,1-1.14,2.26-2.06,3.66-2.7.2-.09.41-.18.6-.27,8.67-3.76,17.77,4.48,14.56,13.06-2.67,7.12-7.65,17.84-16.01,27.53Z"/>
    <path id="c-2" data-name="c" class="cls-2" d="m816.93,586c-5.36,6.5-1.48,16.36,6.85,17.61,15.77,2.36,38.13,1.11,55.97-17.87,31-33,61.47-123.3-70.82-123.07-41.09.07-247.23,220.06-76.37,328.33.78.5,1.63.9,2.51,1.18,68.24,21.31,171.11-105.09,157.03-169.49-.7-3.21-2.89-5.88-5.84-7.32-10.02-4.88-35.18-14.74-58.52-4.62-30,13-9,69-36,72-26.88,2.99-82.08-12.16,22.36-136.04,1-1.19,2.26-2.15,3.66-2.82.2-.1.41-.19.6-.28,8.67-3.93,17.77,4.68,14.56,13.64-2.67,7.44-7.65,18.64-16.01,28.77Z"/>
  </g>
</svg>