<svg id="Group_91" data-name="Group 91" xmlns="http://www.w3.org/2000/svg" xmlns:xlink="http://www.w3.org/1999/xlink" width="298.823" height="172.579" viewBox="0 0 298.823 172.579">
  <defs>
    <clipPath id="clip-path">
      <rect id="Rectangle_167" data-name="Rectangle 167" width="298.823" height="172.579" fill="none"/>
    </clipPath>
  </defs>
  <path id="Path_49" data-name="Path 49" d="M171.931,94.633V210.76l-21.314,21.314v-111.5H8L33,94.633H71.792l5.436,14.029,6.683-2.465L79.629,94.633H93.5L89.223,106.2l6.69,2.465,5.4-14.029Z" transform="translate(-5.15 -60.921)" fill="#fff"/>
  <path id="Path_54" data-name="Path 54" d="M0,0H138.222V105.091H0Z" transform="translate(0 67.487)" fill="#e5e5e5"/>
  <path id="Path_50" data-name="Path 50" d="M161.8,0l-6.684,2.467,11.358,31.178h7.837Z" transform="translate(-99.857)"/>
  <path id="Path_51" data-name="Path 51" d="M260.628,0,248.116,33.644h7.837L267.312,2.467Z" transform="translate(-159.727)"/>
  <g id="Group_84" data-name="Group 84">
    <g id="Group_83" data-name="Group 83" clip-path="url(#clip-path)">
      <path id="Path_52" data-name="Path 52" d="M135.83,307.9H52.111A12.112,12.112,0,0,1,40,295.786V245.554a12.112,12.112,0,0,1,12.111-12.111H135.83a12.111,12.111,0,0,1,12.111,12.111v50.231A12.111,12.111,0,0,1,135.83,307.9" transform="translate(-25.75 -150.281)"/>
    </g>
  </g>
  <path id="Path_53" data-name="Path 53" d="M90.5,275.93l26.362-4.987-7.837,14.25,30.993-8.55-12.825,21.374,28.9-13.537-9.3,23.512,9.3-4.529,2.809,5.954-25.649,14.25,9.975-25.649L106.531,316.9l17.456-27.787L93.35,298.73l9.975-17.812-11.756,2.494Z" transform="translate(-58.26 -174.422)" fill="#fff"/>
</svg>
